<mxfile host="app.diagrams.net" agent="Mozilla/5.0 (Macintosh; Intel Mac OS X 10_15_7) AppleWebKit/537.36 (KHTML, like Gecko) Chrome/127.0.0.0 Safari/537.36 OPR/113.0.0.0" version="24.7.12">
  <diagram name="Seite-1" id="9pEVWhV_WQzaXaiLkUfg">
    <mxGraphModel dx="2044" dy="708" grid="1" gridSize="10" guides="1" tooltips="1" connect="1" arrows="1" fold="1" page="1" pageScale="1" pageWidth="827" pageHeight="1169" math="0" shadow="0">
      <root>
        <mxCell id="0" />
        <mxCell id="1" parent="0" />
        <mxCell id="P6qjONITBiFZTRHwnlfQ-25" value="GourmetGuide" style="rounded=0;whiteSpace=wrap;html=1;" vertex="1" parent="1">
          <mxGeometry x="-560" y="900" width="1060" height="40" as="geometry" />
        </mxCell>
        <mxCell id="P6qjONITBiFZTRHwnlfQ-114" style="edgeStyle=orthogonalEdgeStyle;rounded=0;orthogonalLoop=1;jettySize=auto;html=1;" edge="1" parent="1" source="P6qjONITBiFZTRHwnlfQ-39" target="P6qjONITBiFZTRHwnlfQ-25">
          <mxGeometry relative="1" as="geometry" />
        </mxCell>
        <mxCell id="P6qjONITBiFZTRHwnlfQ-39" value="Upload-UI" style="rounded=0;whiteSpace=wrap;html=1;" vertex="1" parent="1">
          <mxGeometry x="40" y="730" width="100" height="40" as="geometry" />
        </mxCell>
        <mxCell id="P6qjONITBiFZTRHwnlfQ-102" style="edgeStyle=orthogonalEdgeStyle;rounded=0;orthogonalLoop=1;jettySize=auto;html=1;" edge="1" parent="1" source="P6qjONITBiFZTRHwnlfQ-41" target="P6qjONITBiFZTRHwnlfQ-39">
          <mxGeometry relative="1" as="geometry" />
        </mxCell>
        <mxCell id="P6qjONITBiFZTRHwnlfQ-41" value="Upload-Schnittstelle" style="rounded=0;whiteSpace=wrap;html=1;" vertex="1" parent="1">
          <mxGeometry x="40" y="630" width="100" height="40" as="geometry" />
        </mxCell>
        <mxCell id="P6qjONITBiFZTRHwnlfQ-118" style="edgeStyle=orthogonalEdgeStyle;rounded=0;orthogonalLoop=1;jettySize=auto;html=1;entryX=1;entryY=0.5;entryDx=0;entryDy=0;" edge="1" parent="1" source="P6qjONITBiFZTRHwnlfQ-43" target="P6qjONITBiFZTRHwnlfQ-66">
          <mxGeometry relative="1" as="geometry" />
        </mxCell>
        <mxCell id="P6qjONITBiFZTRHwnlfQ-119" style="edgeStyle=orthogonalEdgeStyle;rounded=0;orthogonalLoop=1;jettySize=auto;html=1;entryX=1;entryY=0.5;entryDx=0;entryDy=0;" edge="1" parent="1" source="P6qjONITBiFZTRHwnlfQ-43" target="P6qjONITBiFZTRHwnlfQ-25">
          <mxGeometry relative="1" as="geometry" />
        </mxCell>
        <mxCell id="P6qjONITBiFZTRHwnlfQ-43" value="Logo" style="ellipse;whiteSpace=wrap;html=1;aspect=fixed;" vertex="1" parent="1">
          <mxGeometry x="540" y="370" width="50" height="50" as="geometry" />
        </mxCell>
        <mxCell id="P6qjONITBiFZTRHwnlfQ-99" style="edgeStyle=orthogonalEdgeStyle;rounded=0;orthogonalLoop=1;jettySize=auto;html=1;" edge="1" parent="1" source="P6qjONITBiFZTRHwnlfQ-45" target="P6qjONITBiFZTRHwnlfQ-47">
          <mxGeometry relative="1" as="geometry" />
        </mxCell>
        <mxCell id="P6qjONITBiFZTRHwnlfQ-45" value="Bewertungs-Schnittstelle" style="rounded=0;whiteSpace=wrap;html=1;" vertex="1" parent="1">
          <mxGeometry x="-320" y="630" width="100" height="40" as="geometry" />
        </mxCell>
        <mxCell id="P6qjONITBiFZTRHwnlfQ-111" style="edgeStyle=orthogonalEdgeStyle;rounded=0;orthogonalLoop=1;jettySize=auto;html=1;" edge="1" parent="1" source="P6qjONITBiFZTRHwnlfQ-47" target="P6qjONITBiFZTRHwnlfQ-25">
          <mxGeometry relative="1" as="geometry" />
        </mxCell>
        <mxCell id="P6qjONITBiFZTRHwnlfQ-47" value="Sternebewertung-UI" style="rounded=0;whiteSpace=wrap;html=1;" vertex="1" parent="1">
          <mxGeometry x="-320" y="730" width="100" height="40" as="geometry" />
        </mxCell>
        <mxCell id="P6qjONITBiFZTRHwnlfQ-113" style="edgeStyle=orthogonalEdgeStyle;rounded=0;orthogonalLoop=1;jettySize=auto;html=1;" edge="1" parent="1" source="P6qjONITBiFZTRHwnlfQ-55" target="P6qjONITBiFZTRHwnlfQ-25">
          <mxGeometry relative="1" as="geometry" />
        </mxCell>
        <mxCell id="P6qjONITBiFZTRHwnlfQ-55" value="Anmelden-UI" style="rounded=0;whiteSpace=wrap;html=1;" vertex="1" parent="1">
          <mxGeometry x="-80" y="730" width="100" height="40" as="geometry" />
        </mxCell>
        <mxCell id="P6qjONITBiFZTRHwnlfQ-109" style="edgeStyle=orthogonalEdgeStyle;rounded=0;orthogonalLoop=1;jettySize=auto;html=1;" edge="1" parent="1" source="P6qjONITBiFZTRHwnlfQ-57" target="P6qjONITBiFZTRHwnlfQ-25">
          <mxGeometry relative="1" as="geometry" />
        </mxCell>
        <mxCell id="P6qjONITBiFZTRHwnlfQ-57" value="Account erstellen-UI" style="rounded=0;whiteSpace=wrap;html=1;" vertex="1" parent="1">
          <mxGeometry x="-560" y="730" width="100" height="40" as="geometry" />
        </mxCell>
        <mxCell id="P6qjONITBiFZTRHwnlfQ-96" style="edgeStyle=orthogonalEdgeStyle;rounded=0;orthogonalLoop=1;jettySize=auto;html=1;" edge="1" parent="1" source="P6qjONITBiFZTRHwnlfQ-59" target="P6qjONITBiFZTRHwnlfQ-92">
          <mxGeometry relative="1" as="geometry">
            <Array as="points">
              <mxPoint x="90" y="600" />
              <mxPoint x="-30" y="600" />
            </Array>
          </mxGeometry>
        </mxCell>
        <mxCell id="P6qjONITBiFZTRHwnlfQ-98" style="edgeStyle=orthogonalEdgeStyle;rounded=0;orthogonalLoop=1;jettySize=auto;html=1;entryX=0.5;entryY=0;entryDx=0;entryDy=0;" edge="1" parent="1" source="P6qjONITBiFZTRHwnlfQ-59" target="P6qjONITBiFZTRHwnlfQ-57">
          <mxGeometry relative="1" as="geometry">
            <Array as="points">
              <mxPoint x="90" y="600" />
              <mxPoint x="-510" y="600" />
            </Array>
          </mxGeometry>
        </mxCell>
        <mxCell id="P6qjONITBiFZTRHwnlfQ-59" value="Account erstellen-Schnittstelle" style="rounded=0;whiteSpace=wrap;html=1;" vertex="1" parent="1">
          <mxGeometry x="40" y="530" width="100" height="40" as="geometry" />
        </mxCell>
        <mxCell id="P6qjONITBiFZTRHwnlfQ-86" style="edgeStyle=orthogonalEdgeStyle;rounded=0;orthogonalLoop=1;jettySize=auto;html=1;" edge="1" parent="1" target="P6qjONITBiFZTRHwnlfQ-41">
          <mxGeometry relative="1" as="geometry">
            <mxPoint x="90" y="570" as="sourcePoint" />
          </mxGeometry>
        </mxCell>
        <mxCell id="P6qjONITBiFZTRHwnlfQ-89" style="edgeStyle=orthogonalEdgeStyle;rounded=0;orthogonalLoop=1;jettySize=auto;html=1;" edge="1" parent="1" target="P6qjONITBiFZTRHwnlfQ-70">
          <mxGeometry relative="1" as="geometry">
            <mxPoint x="90.04761904761904" y="570" as="sourcePoint" />
            <Array as="points">
              <mxPoint x="90" y="600" />
              <mxPoint x="-390" y="600" />
            </Array>
          </mxGeometry>
        </mxCell>
        <mxCell id="P6qjONITBiFZTRHwnlfQ-90" style="edgeStyle=orthogonalEdgeStyle;rounded=0;orthogonalLoop=1;jettySize=auto;html=1;" edge="1" parent="1" target="P6qjONITBiFZTRHwnlfQ-45">
          <mxGeometry relative="1" as="geometry">
            <mxPoint x="90.04761904761904" y="570" as="sourcePoint" />
            <Array as="points">
              <mxPoint x="90" y="600" />
              <mxPoint x="-270" y="600" />
            </Array>
          </mxGeometry>
        </mxCell>
        <mxCell id="P6qjONITBiFZTRHwnlfQ-91" style="edgeStyle=orthogonalEdgeStyle;rounded=0;orthogonalLoop=1;jettySize=auto;html=1;" edge="1" parent="1" target="P6qjONITBiFZTRHwnlfQ-74">
          <mxGeometry relative="1" as="geometry">
            <mxPoint x="90.04761904761904" y="570" as="sourcePoint" />
            <Array as="points">
              <mxPoint x="90" y="600" />
              <mxPoint x="-150" y="600" />
            </Array>
          </mxGeometry>
        </mxCell>
        <mxCell id="P6qjONITBiFZTRHwnlfQ-117" style="edgeStyle=orthogonalEdgeStyle;rounded=0;orthogonalLoop=1;jettySize=auto;html=1;" edge="1" parent="1" source="P6qjONITBiFZTRHwnlfQ-64" target="P6qjONITBiFZTRHwnlfQ-25">
          <mxGeometry relative="1" as="geometry" />
        </mxCell>
        <mxCell id="P6qjONITBiFZTRHwnlfQ-64" value="Teilen-UI" style="rounded=0;whiteSpace=wrap;html=1;" vertex="1" parent="1">
          <mxGeometry x="400" y="730" width="100" height="40" as="geometry" />
        </mxCell>
        <mxCell id="P6qjONITBiFZTRHwnlfQ-106" style="edgeStyle=orthogonalEdgeStyle;rounded=0;orthogonalLoop=1;jettySize=auto;html=1;" edge="1" parent="1" source="P6qjONITBiFZTRHwnlfQ-66" target="P6qjONITBiFZTRHwnlfQ-64">
          <mxGeometry relative="1" as="geometry" />
        </mxCell>
        <mxCell id="P6qjONITBiFZTRHwnlfQ-66" value="PDF-erstellen" style="rounded=0;whiteSpace=wrap;html=1;" vertex="1" parent="1">
          <mxGeometry x="400" y="530" width="100" height="40" as="geometry" />
        </mxCell>
        <mxCell id="P6qjONITBiFZTRHwnlfQ-108" style="edgeStyle=orthogonalEdgeStyle;rounded=0;orthogonalLoop=1;jettySize=auto;html=1;" edge="1" parent="1" source="P6qjONITBiFZTRHwnlfQ-68" target="P6qjONITBiFZTRHwnlfQ-25">
          <mxGeometry relative="1" as="geometry" />
        </mxCell>
        <mxCell id="P6qjONITBiFZTRHwnlfQ-68" value="User Folgen-UI" style="rounded=0;whiteSpace=wrap;html=1;" vertex="1" parent="1">
          <mxGeometry x="-440" y="730" width="100" height="40" as="geometry" />
        </mxCell>
        <mxCell id="P6qjONITBiFZTRHwnlfQ-97" style="edgeStyle=orthogonalEdgeStyle;rounded=0;orthogonalLoop=1;jettySize=auto;html=1;" edge="1" parent="1" source="P6qjONITBiFZTRHwnlfQ-70" target="P6qjONITBiFZTRHwnlfQ-68">
          <mxGeometry relative="1" as="geometry" />
        </mxCell>
        <mxCell id="P6qjONITBiFZTRHwnlfQ-70" value="Folgen- Schnittstelle" style="rounded=0;whiteSpace=wrap;html=1;" vertex="1" parent="1">
          <mxGeometry x="-440" y="630" width="100" height="40" as="geometry" />
        </mxCell>
        <mxCell id="P6qjONITBiFZTRHwnlfQ-112" style="edgeStyle=orthogonalEdgeStyle;rounded=0;orthogonalLoop=1;jettySize=auto;html=1;" edge="1" parent="1" source="P6qjONITBiFZTRHwnlfQ-72" target="P6qjONITBiFZTRHwnlfQ-25">
          <mxGeometry relative="1" as="geometry" />
        </mxCell>
        <mxCell id="P6qjONITBiFZTRHwnlfQ-72" value="Rezepte Bookmark-UI" style="rounded=0;whiteSpace=wrap;html=1;" vertex="1" parent="1">
          <mxGeometry x="-200" y="730" width="100" height="40" as="geometry" />
        </mxCell>
        <mxCell id="P6qjONITBiFZTRHwnlfQ-100" style="edgeStyle=orthogonalEdgeStyle;rounded=0;orthogonalLoop=1;jettySize=auto;html=1;" edge="1" parent="1" source="P6qjONITBiFZTRHwnlfQ-74" target="P6qjONITBiFZTRHwnlfQ-72">
          <mxGeometry relative="1" as="geometry" />
        </mxCell>
        <mxCell id="P6qjONITBiFZTRHwnlfQ-74" value="Rezepte Bookmark-Schnittstelle" style="rounded=0;whiteSpace=wrap;html=1;" vertex="1" parent="1">
          <mxGeometry x="-200" y="630" width="100" height="40" as="geometry" />
        </mxCell>
        <mxCell id="P6qjONITBiFZTRHwnlfQ-115" style="edgeStyle=orthogonalEdgeStyle;rounded=0;orthogonalLoop=1;jettySize=auto;html=1;" edge="1" parent="1" source="P6qjONITBiFZTRHwnlfQ-75" target="P6qjONITBiFZTRHwnlfQ-25">
          <mxGeometry relative="1" as="geometry" />
        </mxCell>
        <mxCell id="P6qjONITBiFZTRHwnlfQ-75" value="Zutatensuche-UI" style="rounded=0;whiteSpace=wrap;html=1;" vertex="1" parent="1">
          <mxGeometry x="160" y="730" width="100" height="40" as="geometry" />
        </mxCell>
        <mxCell id="P6qjONITBiFZTRHwnlfQ-116" style="edgeStyle=orthogonalEdgeStyle;rounded=0;orthogonalLoop=1;jettySize=auto;html=1;" edge="1" parent="1" source="P6qjONITBiFZTRHwnlfQ-76" target="P6qjONITBiFZTRHwnlfQ-25">
          <mxGeometry relative="1" as="geometry" />
        </mxCell>
        <mxCell id="P6qjONITBiFZTRHwnlfQ-76" value="Rezeptsuche-UI" style="rounded=0;whiteSpace=wrap;html=1;" vertex="1" parent="1">
          <mxGeometry x="280" y="730" width="100" height="40" as="geometry" />
        </mxCell>
        <mxCell id="P6qjONITBiFZTRHwnlfQ-104" style="edgeStyle=orthogonalEdgeStyle;rounded=0;orthogonalLoop=1;jettySize=auto;html=1;" edge="1" parent="1" source="P6qjONITBiFZTRHwnlfQ-77" target="P6qjONITBiFZTRHwnlfQ-75">
          <mxGeometry relative="1" as="geometry" />
        </mxCell>
        <mxCell id="P6qjONITBiFZTRHwnlfQ-77" value="Zutatensuche-Schnittstelle" style="rounded=0;whiteSpace=wrap;html=1;" vertex="1" parent="1">
          <mxGeometry x="160" y="530" width="100" height="40" as="geometry" />
        </mxCell>
        <mxCell id="P6qjONITBiFZTRHwnlfQ-105" style="edgeStyle=orthogonalEdgeStyle;rounded=0;orthogonalLoop=1;jettySize=auto;html=1;" edge="1" parent="1" source="P6qjONITBiFZTRHwnlfQ-78" target="P6qjONITBiFZTRHwnlfQ-76">
          <mxGeometry relative="1" as="geometry" />
        </mxCell>
        <mxCell id="P6qjONITBiFZTRHwnlfQ-78" value="Rezeptsuche-Schnittstelle" style="rounded=0;whiteSpace=wrap;html=1;" vertex="1" parent="1">
          <mxGeometry x="280" y="530" width="100" height="40" as="geometry" />
        </mxCell>
        <mxCell id="P6qjONITBiFZTRHwnlfQ-83" style="edgeStyle=orthogonalEdgeStyle;rounded=0;orthogonalLoop=1;jettySize=auto;html=1;" edge="1" parent="1" source="P6qjONITBiFZTRHwnlfQ-79" target="P6qjONITBiFZTRHwnlfQ-77">
          <mxGeometry relative="1" as="geometry">
            <Array as="points">
              <mxPoint x="90" y="480" />
              <mxPoint x="210" y="480" />
            </Array>
          </mxGeometry>
        </mxCell>
        <mxCell id="P6qjONITBiFZTRHwnlfQ-84" style="edgeStyle=orthogonalEdgeStyle;rounded=0;orthogonalLoop=1;jettySize=auto;html=1;" edge="1" parent="1" source="P6qjONITBiFZTRHwnlfQ-79" target="P6qjONITBiFZTRHwnlfQ-78">
          <mxGeometry relative="1" as="geometry">
            <Array as="points">
              <mxPoint x="90" y="480" />
              <mxPoint x="330" y="480" />
            </Array>
          </mxGeometry>
        </mxCell>
        <mxCell id="P6qjONITBiFZTRHwnlfQ-85" style="edgeStyle=orthogonalEdgeStyle;rounded=0;orthogonalLoop=1;jettySize=auto;html=1;" edge="1" parent="1" source="P6qjONITBiFZTRHwnlfQ-79">
          <mxGeometry relative="1" as="geometry">
            <mxPoint x="90" y="530" as="targetPoint" />
          </mxGeometry>
        </mxCell>
        <mxCell id="P6qjONITBiFZTRHwnlfQ-95" style="edgeStyle=orthogonalEdgeStyle;rounded=0;orthogonalLoop=1;jettySize=auto;html=1;" edge="1" parent="1" source="P6qjONITBiFZTRHwnlfQ-79" target="P6qjONITBiFZTRHwnlfQ-66">
          <mxGeometry relative="1" as="geometry">
            <Array as="points">
              <mxPoint x="90" y="480" />
              <mxPoint x="450" y="480" />
            </Array>
          </mxGeometry>
        </mxCell>
        <mxCell id="P6qjONITBiFZTRHwnlfQ-79" value="Datenbank" style="rounded=0;whiteSpace=wrap;html=1;" vertex="1" parent="1">
          <mxGeometry x="40" y="410" width="100" height="40" as="geometry" />
        </mxCell>
        <mxCell id="P6qjONITBiFZTRHwnlfQ-101" style="edgeStyle=orthogonalEdgeStyle;rounded=0;orthogonalLoop=1;jettySize=auto;html=1;entryX=0.5;entryY=0;entryDx=0;entryDy=0;" edge="1" parent="1" source="P6qjONITBiFZTRHwnlfQ-92" target="P6qjONITBiFZTRHwnlfQ-55">
          <mxGeometry relative="1" as="geometry" />
        </mxCell>
        <mxCell id="P6qjONITBiFZTRHwnlfQ-92" value="Anmelden-Schnittstelle" style="rounded=0;whiteSpace=wrap;html=1;" vertex="1" parent="1">
          <mxGeometry x="-80" y="630" width="100" height="40" as="geometry" />
        </mxCell>
        <mxCell id="P6qjONITBiFZTRHwnlfQ-120" value="" style="shape=flexArrow;endArrow=classic;startArrow=classic;html=1;rounded=0;" edge="1" parent="1">
          <mxGeometry width="100" height="100" relative="1" as="geometry">
            <mxPoint x="-650" y="940" as="sourcePoint" />
            <mxPoint x="-650" y="380" as="targetPoint" />
          </mxGeometry>
        </mxCell>
        <mxCell id="P6qjONITBiFZTRHwnlfQ-121" value="Zeitlich&lt;br&gt;Früher" style="edgeLabel;html=1;align=center;verticalAlign=middle;resizable=0;points=[];" vertex="1" connectable="0" parent="P6qjONITBiFZTRHwnlfQ-120">
          <mxGeometry x="0.8376" relative="1" as="geometry">
            <mxPoint as="offset" />
          </mxGeometry>
        </mxCell>
        <mxCell id="P6qjONITBiFZTRHwnlfQ-122" value="Zeitlich&lt;br&gt;Spähter" style="edgeLabel;html=1;align=center;verticalAlign=middle;resizable=0;points=[];" vertex="1" connectable="0" parent="P6qjONITBiFZTRHwnlfQ-120">
          <mxGeometry x="-0.808" y="1" relative="1" as="geometry">
            <mxPoint as="offset" />
          </mxGeometry>
        </mxCell>
      </root>
    </mxGraphModel>
  </diagram>
</mxfile>
